<?xml version="1.0" encoding="UTF-8"?>
<svg width="863px" height="175px" viewBox="0 0 863 175" version="1.1" xmlns="http://www.w3.org/2000/svg" xmlns:xlink="http://www.w3.org/1999/xlink">
    <title>techspeakeresunite-logo</title>
    <defs>
        <linearGradient x1="0.0105954651%" y1="49.9892924%" x2="100.010595%" y2="49.9892924%" id="linearGradient-1">
            <stop stop-color="#000000" stop-opacity="0" offset="0%"></stop>
            <stop stop-color="#000000" stop-opacity="0.29272" offset="32.525%"></stop>
            <stop stop-color="#000000" stop-opacity="0.65014" offset="72.238%"></stop>
            <stop stop-color="#000000" stop-opacity="0.9" offset="100%"></stop>
        </linearGradient>
    </defs>
    <g id="Page-1" stroke="none" stroke-width="1" fill="none" fill-rule="evenodd">
        <g id="techspeakeresunite-logo" transform="translate(0.000000, 0.000000)" fill-rule="nonzero">
            <rect id="rect2" fill="#101010" x="0" y="0" width="863" height="175"></rect>
            <g id="logo-group" transform="translate(20.000000, 26.000000)">
                <path d="M47.737776,0.0550063648 C47.724024,0.0495072 37.0102992,13.9234416 23.9321472,30.8851584 C10.8539952,47.847792 0.1576896,61.737312 0.163188279,61.7583984 C0.16814112,61.7748091 10.8934176,75.4920624 23.99724,92.2401648 C37.1001456,108.988267 47.83404,122.68801 47.8496256,122.68251 C47.8653029,122.677008 58.5532656,108.86725 71.6002464,91.9944624 L95.3224464,61.3165008 L95.0886624,61.0112064 C94.9580184,60.843432 84.2594208,47.0620944 71.3114544,30.3864192 C58.3644048,13.7098272 47.760696,0.0623424 47.7405264,0.0568416 L47.737776,0.0550063648 Z" id="icon_container" fill="#204051"></path>
                <polygon id="path14" fill="#E4E1E2" points="154.810848 41.62272 166.414786 41.62272 166.414786 49.2429782 154.808098 49.2429782 154.808098 81.2301302 146.015527 81.2301302 146.015527 49.2448118 134.41159 49.2448118 134.41159 41.6246453 154.808556 41.6246453"></polygon>
                <polygon id="path17" fill="#E4E1E2" points="180.618768 73.609872 199.0602 73.609872 199.0602 81.2312304 171.824822 81.2312304 171.824822 41.6254704 199.0602 41.6254704 199.0602 49.2468288 180.618768 49.246893 180.618768 57.7411367 195.997171 57.7411367 195.997171 65.3624951 180.618768 65.3624951"></polygon>
                <path d="M242.21856,66.669696 C239.688375,74.7017808 232.171349,80.5436304 223.318728,80.5436304 C223.049821,80.5436304 222.783069,80.5339123 222.516592,80.5233691 C211.968808,80.1002934 203.513162,71.3879155 203.513162,60.7379083 C203.513162,49.8133195 212.399979,40.9322779 223.318792,40.9322779 C231.899948,40.9322779 239.229856,46.4228098 241.970171,54.0755227 L232.460205,54.0755227 C230.399789,51.2567294 227.071713,49.4227627 223.3187,49.4227627 C217.081068,49.4227627 212.003555,54.5000011 212.003555,60.7379083 C212.003555,66.9756322 217.080977,72.0530539 223.3187,72.0530539 C227.383058,72.0530539 230.954544,69.8963736 232.946934,66.669971 L242.21856,66.669696 Z" id="path20" fill="#E4E1E2"></path>
                <polygon id="path23" fill="#F6FAFB" points="276.04848 56.859936 276.04848 64.4801026 258.74388 64.4801392 258.74388 81.2300752 249.951218 81.2300752 249.951218 41.6243152 258.74388 41.6243152 258.74388 56.8587808"></polygon>
                <polygon id="path25" fill="#E4E1E2" points="284.84976 81.22848 276.05719 81.22848 276.05719 41.62272 284.84976 41.62272"></polygon>
                <polygon id="path36" fill="url(#linearGradient-1)" opacity="0.38999999" points="258.748464 64.478544 258.748464 56.8582858 276.053981 56.8582674 276.053981 64.4785257"></polygon>
                <path d="M343.38744,68.34744 C343.408985,68.6563924 343.394774,69.0486086 343.379189,69.4164288 C343.347101,69.7928577 343.313913,70.1678197 343.242604,70.5461098 C343.10965,71.2986375 342.899079,72.0537874 342.59328,72.7627488 C341.991759,74.1891062 341.07836,75.4239442 340.065113,76.3822752 C339.050123,77.3508744 337.942721,78.0778051 336.829542,78.6391618 C334.592825,79.7553658 332.32017,80.2900435 330.071168,80.4734035 C329.507794,80.5208021 328.947262,80.5345541 328.385081,80.5387714 C327.777251,80.5305202 327.168212,80.5070501 326.560007,80.4325417 C325.343413,80.3006601 324.134612,80.015086 322.9612,79.6009125 C320.622718,78.7582632 318.404521,77.3319241 316.711466,75.2497797 C315.86526,74.2157209 315.159232,73.0156297 314.671495,71.7020387 C314.179292,70.3897312 313.94119,68.9602566 313.95408,67.5518685 L322.471336,67.5518685 C322.513325,68.3091636 322.79096,69.031767 323.388411,69.7320189 C323.984422,70.4184087 324.870876,71.0269072 325.900718,71.3950024 C326.418966,71.572009 326.965031,71.7065677 327.531613,71.7633818 C327.813236,71.8001455 328.101441,71.8050045 328.389371,71.8118805 C328.723233,71.8063797 329.059653,71.8000538 329.389325,71.7697077 C330.708509,71.6732053 331.990928,71.3721832 332.971813,70.895163 C333.463474,70.6629651 333.869048,70.3891353 334.156868,70.1255736 C334.45205,69.8604075 334.617643,69.6176022 334.724138,69.3953424 C334.781805,69.2840062 334.810409,69.1683794 334.839903,69.0410634 C334.871349,68.8981709 334.881525,68.8081962 334.882717,68.5630989 C334.895552,68.071309 334.823217,67.7203213 334.756749,67.4364433 C334.665436,67.162751 334.582566,66.904626 334.318271,66.5904478 C334.069424,66.2777365 333.648805,65.9300401 333.106812,65.6002121 C332.014719,64.9260432 330.485039,64.3595067 328.827831,63.9057824 C327.159897,63.4349414 325.35105,63.0112331 323.400467,62.340163 C322.422608,62.0024047 321.401843,61.5984351 320.34413,61.0155704 C319.293844,60.4369504 318.17214,59.6639321 317.195564,58.5516704 C316.221189,57.4466513 315.463362,55.9963654 315.135056,54.5743169 C314.958453,53.8634852 314.866186,53.1614364 314.83826,52.4965731 C314.802505,51.8324707 314.82185,51.1386089 314.920589,50.4238716 C315.100951,49.0013648 315.646731,47.4913952 316.517471,46.2285948 C317.379923,44.9554347 318.509678,43.9569478 319.657603,43.2418438 C320.660491,42.6287155 321.664662,42.1908243 322.659665,41.8629766 C323.976464,41.4292019 325.276579,41.1937768 326.531953,41.0541756 C327.085801,40.9962339 327.634772,40.9590301 328.178159,40.9429128 L328.591773,40.9329197 L329.05429,40.9393373 C329.362499,40.9439213 329.671791,40.9684915 329.980441,40.990403 C331.215279,41.1011983 332.447917,41.3539509 333.638381,41.7708015 C336.019219,42.5916309 338.246677,44.0616097 339.920478,46.1575062 C341.611057,48.2218647 342.644566,51.0208551 342.60496,53.8143447 L334.087705,53.8143447 C334.065243,53.0117872 333.758941,52.2663279 333.19597,51.546915 C332.624538,50.8402455 331.764662,50.2323155 330.770301,49.8591779 C330.272598,49.6714906 329.738534,49.5516373 329.189646,49.4890565 C329.051457,49.4790634 328.913937,49.4616442 328.773996,49.4584354 L328.564489,49.4501842 L328.30597,49.4456002 C327.953039,49.4400994 327.606287,49.4492674 327.267419,49.4689786 C325.915506,49.5400306 324.666641,49.8515868 323.907989,50.2774495 C323.519467,50.4807041 323.267118,50.6847654 323.097904,50.8807039 C322.927077,51.078256 322.80352,51.2840684 322.72241,51.6341118 C322.632931,51.9558903 322.632014,52.5321541 322.690047,52.8263185 C322.741755,53.1584935 322.828778,53.3481886 323.007929,53.6123554 C323.11966,53.7604919 323.288608,53.9313101 323.505899,54.1073724 C323.65927,54.2314704 323.833187,54.3578329 324.043492,54.481931 C324.139242,54.538956 324.244399,54.5950733 324.349556,54.6511448 C324.372935,54.6640716 324.395855,54.6770902 324.419233,54.6896504 C324.590601,54.7789467 324.773915,54.8666569 324.965692,54.9529462 C325.036285,54.9843007 325.106705,55.015747 325.178417,55.0450662 C325.408735,55.1438514 325.646315,55.2412156 325.896904,55.3346833 C327.327937,55.8611282 329.006414,56.2924643 330.792799,56.7768097 C332.583676,57.2836443 334.517024,57.7315653 336.631898,58.6755942 C337.682643,59.1622133 338.790687,59.7862057 339.846841,60.7063979 C340.901069,61.6071264 341.869852,62.8504264 342.471364,64.2295686 C343.088343,65.6051353 343.339611,67.0476285 343.386752,68.3465507 L343.38744,68.34744 Z" id="path39" fill="#E4E1E2"></path>
                <path d="M373.449312,41.906928 C372.505375,41.7199925 371.526874,41.6198046 370.522611,41.6198046 L360.241616,41.6198046 L360.241616,41.6198046 L351.449046,41.6198046 L351.449046,81.2256929 L360.241708,81.2256929 L360.241708,68.0485265 L370.522703,68.0485265 C378.13196,68.0485265 384.323293,62.4439448 384.323293,54.8346881 C384.323293,48.2293275 379.657515,43.1372369 373.450045,41.9078081 L373.449312,41.906928 Z M370.522611,60.4281216 L360.241616,60.4281216 L360.241616,49.2404112 L370.522611,49.2404112 C373.284013,49.2404112 375.530173,52.0729565 375.530173,54.8343581 C375.530173,57.1932845 373.889101,59.5979592 371.689789,60.2506291 C371.314571,60.3620295 370.925105,60.4284333 370.522611,60.4284333 L370.522611,60.4281216 Z" id="path42" fill="#E4E1E2"></path>
                <polygon id="path45" fill="#E4E1E2" points="399.303072 73.609872 417.744504 73.609872 417.744504 81.2312304 390.509126 81.2312304 390.509126 41.6254704 417.744504 41.6254704 417.744504 49.2468288 399.303072 49.246893 399.303072 57.7411367 414.681475 57.7411367 414.681475 65.3624951 399.303072 65.3624951"></polygon>
                <polygon id="path48" fill="#E4E1E2" points="465.431856 81.283488 455.502912 81.283488 443.744952 60.1182432 431.992493 81.283488 421.441958 81.283488 438.469685 50.6220288 443.440299 41.677453 448.715475 51.1727506"></polygon>
                <path d="M479.128848,41.62272 L479.128848,81.2257296 L470.336828,81.2257296 L470.336828,41.6199696 L479.128848,41.62272 Z M503.658749,41.6236368 L493.106381,41.6236368 L483.921878,54.512928 L479.127381,61.2475574 L484.883235,67.9763194 L496.213049,81.2286634 L506.763584,81.2286634 L489.678099,61.2470074 L503.658749,41.6236368 Z" id="path51" fill="#E4E1E2"></path>
                <polygon id="path54" fill="#E4E1E2" points="520.522368 73.609872 538.9638 73.609872 538.9638 81.2312304 511.728422 81.2312304 511.728422 41.6254704 538.9638 41.6254704 538.9638 49.2468288 520.522368 49.246893 520.522368 57.7411367 535.900771 57.7411367 535.900771 65.3624951 520.522368 65.3624951"></polygon>
                <path d="M579.09672,54.833808 C579.09672,48.228539 574.430941,43.1363568 568.223472,41.906928 C568.223344,41.906928 568.223344,41.9068638 568.223344,41.9068638 C567.279406,41.7199283 566.300906,41.6197404 565.296643,41.6197404 L555.015648,41.6197404 L555.015648,41.6197404 L546.223077,41.6197404 L546.223077,81.2256288 L555.015739,81.2256288 L555.015739,68.0484624 L560.843379,68.0484624 L571.276563,81.2228784 L581.241262,81.2228784 L570.15715,67.2325104 C575.371175,65.4186216 579.089899,60.7280894 579.089899,54.8318736 L579.09672,54.833808 Z M565.29613,60.4278466 L555.015134,60.4278466 L555.015134,49.2401362 L565.29613,49.2401362 C568.057531,49.2401362 570.303691,52.0726814 570.303691,54.834083 C570.303691,57.1930094 568.662619,59.5976842 566.463308,60.2503541 C566.08808,60.3617544 565.698623,60.4281583 565.29613,60.4281583 L565.29613,60.4278466 Z" id="path57" fill="#E4E1E2"></path>
                <path d="M614.356848,68.34744 C614.378393,68.6563924 614.364182,69.0486086 614.348597,69.4164288 C614.316509,69.7928577 614.283321,70.1678197 614.212012,70.5461098 C614.079058,71.2986375 613.868487,72.0537874 613.562688,72.7627488 C612.961167,74.1891062 612.047768,75.4239442 611.034521,76.3822752 C610.019531,77.3508744 608.912129,78.0778051 607.79895,78.6391618 C605.562233,79.7553658 603.289578,80.2900435 601.040576,80.4734035 C600.477202,80.5208021 599.91667,80.5345541 599.354489,80.5387714 C598.746659,80.5305202 598.13762,80.5070501 597.529415,80.4325417 C596.312821,80.3006601 595.10402,80.015086 593.930608,79.6009125 C591.592126,78.7582632 589.373929,77.3319241 587.680874,75.2497797 C586.834668,74.2157209 586.12864,73.0156297 585.640903,71.7020387 C585.1487,70.3897312 584.910598,68.9602566 584.923488,67.5518685 L593.440744,67.5518685 C593.482825,68.3091636 593.760368,69.031767 594.357819,69.7320189 C594.95383,70.4184087 595.840284,71.0269072 596.870126,71.3950024 C597.388374,71.572009 597.934439,71.7065677 598.501021,71.7633818 C598.782644,71.8001455 599.070849,71.8050045 599.358779,71.8118805 C599.692641,71.8063797 600.029061,71.8000538 600.358733,71.7697077 C601.677917,71.6732053 602.960336,71.3721832 603.941221,70.895163 C604.432882,70.6629651 604.838456,70.3891353 605.126276,70.1255736 C605.421458,69.8604075 605.587051,69.6176022 605.693546,69.3953424 C605.751213,69.2840062 605.779726,69.1683794 605.809311,69.0410634 C605.840757,68.8981709 605.850933,68.8081962 605.852125,68.5630989 C605.86496,68.071309 605.792625,67.7203213 605.726157,67.4364433 C605.634844,67.162751 605.551974,66.904626 605.287679,66.5904478 C605.038832,66.2777365 604.618213,65.9300401 604.07622,65.6002121 C602.984127,64.9260432 601.454447,64.3595067 599.797239,63.9057824 C598.129305,63.4349414 596.320458,63.0112331 594.369875,62.340163 C593.392016,62.0024047 592.371251,61.5984351 591.313538,61.0155704 C590.263252,60.4369504 589.141548,59.6639321 588.164972,58.5516704 C587.190597,57.4466513 586.43277,55.9963654 586.104464,54.5743169 C585.927861,53.8634852 585.835594,53.1614364 585.807668,52.4965731 C585.771913,51.8324707 585.791258,51.1386089 585.889997,50.4238716 C586.070359,49.0013648 586.616139,47.4913952 587.486879,46.2285948 C588.349331,44.9554347 589.479086,43.9569478 590.627011,43.2418438 C591.629899,42.6287155 592.63407,42.1908243 593.629073,41.8629766 C594.945872,41.4292019 596.245987,41.1937768 597.501361,41.0541756 C598.055209,40.9962339 598.60418,40.9590301 599.147567,40.9429128 L599.561181,40.9329197 L600.023698,40.9393373 C600.331907,40.9439213 600.641199,40.9684915 600.949849,40.990403 C602.184687,41.1011983 603.417325,41.3539509 604.607789,41.7708015 C606.988627,42.5916309 609.216085,44.0616097 610.889886,46.1575062 C612.580465,48.2218647 613.613974,51.0208551 613.574368,53.8143447 L605.057113,53.8143447 C605.034651,53.0117872 604.728349,52.2663279 604.165378,51.546915 C603.593946,50.8402455 602.73407,50.2323155 601.739709,49.8591779 C601.242006,49.6714906 600.707942,49.5516373 600.159054,49.4890565 C600.020865,49.4790634 599.883345,49.4616442 599.743404,49.4584354 L599.533897,49.4501842 L599.275378,49.4456002 C598.922447,49.4400994 598.575695,49.4492674 598.236827,49.4689786 C596.884914,49.5400306 595.636049,49.8515868 594.877397,50.2774495 C594.488875,50.4807041 594.236526,50.6847654 594.067312,50.8807039 C593.896485,51.078256 593.772928,51.2840684 593.691818,51.6341118 C593.602339,51.9558903 593.601422,52.5321541 593.659455,52.8263185 C593.711163,53.1584935 593.798186,53.3481886 593.977337,53.6123554 C594.089068,53.7604919 594.258016,53.9313101 594.475307,54.1073724 C594.628678,54.2314704 594.802595,54.3578329 595.0129,54.481931 C595.10865,54.538956 595.213807,54.5950733 595.318964,54.6511448 C595.342343,54.6640716 595.365263,54.6770902 595.388641,54.6896504 C595.560009,54.7789467 595.743323,54.8666569 595.9351,54.9529462 C596.005693,54.9843007 596.076113,55.015747 596.147825,55.0450662 C596.378143,55.1438514 596.615723,55.2412156 596.866312,55.3346833 C598.297345,55.8611282 599.975822,56.2924643 601.762207,56.7768097 C603.553084,57.2836443 605.486432,57.7315653 607.601306,58.6755942 C608.652051,59.1622133 609.760095,59.7862057 610.816249,60.7063979 C611.870477,61.6071264 612.83926,62.8504264 613.440772,64.2295686 C614.057751,65.6051353 614.309019,67.0476285 614.35616,68.3465507 L614.356848,68.34744 Z" id="path60" fill="#E4E1E2"></path>
                <path d="M668.613072,41.62272 L677.277474,41.62272 L677.277474,64.5546384 L677.277474,64.5546384 C677.277474,72.262176 672.019222,78.762288 664.902379,80.6637312 C663.529929,81.0303595 662.089453,81.22859 660.603045,81.22859 C651.409375,81.22859 643.929204,73.7482355 643.929204,64.5538316 L643.929204,64.5538316 L643.929204,41.6246636 L652.593651,41.6246636 L652.593651,64.556582 L652.593523,64.556582 C652.593523,64.5648332 652.59444,64.572351 652.59444,64.5803271 C652.607642,68.9859179 656.194622,72.5662969 660.602963,72.5662969 C665.019464,72.5662969 668.612678,68.9730827 668.612678,64.556307 L668.612742,64.556307 L668.612742,41.627139 L668.613072,41.62272 Z" id="path63" fill="#E4E1E2"></path>
                <polygon id="path66" fill="#E4E1E2" points="713.875488 41.62272 722.6676 41.62272 722.6676 81.2275632 694.487918 58.6348608 694.487918 81.2248128 685.695806 81.2248128 685.695806 41.6208864 713.875488 64.2135888"></polygon>
                <polygon id="path69" fill="#E4E1E2" points="731.258016 41.62272 740.050678 41.62272 740.050678 81.22848 731.258016 81.22848"></polygon>
                <polygon id="path72" fill="#E4E1E2" points="765.913056 41.62272 777.516994 41.62272 777.516994 49.2429782 765.910306 49.2429782 765.910306 81.2301302 757.118194 81.2301302 757.118194 49.2448118 745.514256 49.2448118 745.514256 41.6246453 765.913056 41.6246453"></polygon>
                <polygon id="path75" fill="#E4E1E2" points="791.720976 73.609872 810.162408 73.609872 810.162408 81.2312304 782.933448 81.2312304 782.933448 41.6254704 810.168826 41.6254704 810.168826 49.2468288 791.727394 49.246893 791.727394 57.7411367 807.105797 57.7411367 807.105797 65.3624951 791.721893 65.3624951"></polygon>
                <path d="M52.3861354,42.686208 C52.3861354,40.369271 50.7126086,38.4384902 48.1382342,38.4384902 L34.5585926,38.4384902 C32.2416557,38.4384902 30.3108749,40.369271 30.3108749,42.686208 C30.3108749,45.0675043 32.2416557,46.9982851 34.5585926,46.9982851 L43.8906998,46.9982851 L43.8906998,79.2421411 C43.8906998,81.5590781 45.7571213,83.4898589 48.1384176,83.4898589 C50.5197139,83.4898589 52.3861354,81.5590781 52.3861354,79.2421411 L52.3861354,42.686208 Z M61.7180592,38.4384902 C59.3367629,38.4384902 57.4059821,40.369271 57.4059821,42.686208 C57.4059821,45.0675043 59.3367629,46.9982851 61.7180592,46.9982851 C64.0349962,46.9982851 65.965777,45.0675043 65.965777,42.686208 C65.965777,40.369271 64.0349962,38.4384902 61.7180592,38.4384902 Z" id="icon" fill="#40A0D5"></path>
            </g>
        </g>
    </g>
</svg>